<svg width="72" height="72" viewBox="0 0 72 72" fill="none" xmlns="http://www.w3.org/2000/svg">
<rect width="72" height="72" rx="36" fill="#4EA356"/>
<path fill-rule="evenodd" clip-rule="evenodd" d="M35.9999 41.6673V41.6673C32.8705 41.6673 30.3333 39.1301 30.3333 36.0007V27.5007C30.3333 24.3712 32.8705 21.834 35.9999 21.834V21.834C39.1293 21.834 41.6666 24.3712 41.6666 27.5007V36.0007C41.6666 39.1301 39.1293 41.6673 35.9999 41.6673Z" stroke="white" stroke-width="2" stroke-linecap="round" stroke-linejoin="round"/>
<path d="M45.9166 34.584V35.859C45.9166 41.4137 41.4768 45.9173 35.9999 45.9173V45.9173C30.5231 45.9173 26.0833 41.4137 26.0833 35.859V34.584" stroke="white" stroke-width="2" stroke-linecap="round" stroke-linejoin="round"/>
<path d="M35.2917 27.4993H36.7084" stroke="white" stroke-width="2" stroke-linecap="round" stroke-linejoin="round"/>
<path d="M34.5833 31.7494H37.4166" stroke="white" stroke-width="2" stroke-linecap="round" stroke-linejoin="round"/>
<path d="M35.2917 36.0423H36.7084" stroke="white" stroke-width="2" stroke-linecap="round" stroke-linejoin="round"/>
<path d="M36.0001 45.916V50.166" stroke="white" stroke-width="2" stroke-linecap="round" stroke-linejoin="round"/>
<path d="M31.75 50.1673H40.25" stroke="white" stroke-width="2" stroke-linecap="round" stroke-linejoin="round"/>
</svg>
