<svg width="52" height="52" viewBox="0 0 52 52" fill="none" xmlns="http://www.w3.org/2000/svg">
<rect width="52" height="52" rx="26" fill="#F5F5F7"/>
<path fill-rule="evenodd" clip-rule="evenodd" d="M26.0002 30.6673V30.6673C23.423 30.6673 21.3335 28.5778 21.3335 26.0007V19.0007C21.3335 16.4235 23.423 14.334 26.0002 14.334V14.334C28.5773 14.334 30.6668 16.4235 30.6668 19.0007V26.0007C30.6668 28.5778 28.5773 30.6673 26.0002 30.6673Z" stroke="#838B97" stroke-width="2" stroke-linecap="round" stroke-linejoin="round"/>
<path d="M34.1668 24.834V25.884C34.1668 30.4585 30.5105 34.1673 26.0002 34.1673V34.1673C21.4898 34.1673 17.8335 30.4585 17.8335 25.884V24.834" stroke="#838B97" stroke-width="2" stroke-linecap="round" stroke-linejoin="round"/>
<path d="M25.4165 18.9993H26.5832" stroke="#838B97" stroke-width="2" stroke-linecap="round" stroke-linejoin="round"/>
<path d="M24.8335 22.4993H27.1668" stroke="#838B97" stroke-width="2" stroke-linecap="round" stroke-linejoin="round"/>
<path d="M25.4165 26.0345H26.5832" stroke="#838B97" stroke-width="2" stroke-linecap="round" stroke-linejoin="round"/>
<path d="M25.9998 34.166V37.666" stroke="#838B97" stroke-width="2" stroke-linecap="round" stroke-linejoin="round"/>
<path d="M22.5 37.6673H29.5" stroke="#838B97" stroke-width="2" stroke-linecap="round" stroke-linejoin="round"/>
</svg>
