<svg width="52" height="52" viewBox="0 0 52 52" fill="none" xmlns="http://www.w3.org/2000/svg">
<rect width="52" height="52" rx="26" fill="#F5F5F7"/>
<path d="M31.8333 27.166L30.6667 28.3327L29.5 27.166" stroke="#838B97" stroke-width="2" stroke-linecap="round" stroke-linejoin="round"/>
<path d="M30.5407 28.2073C30.6177 27.8713 30.6667 27.526 30.6667 27.1667C30.6667 24.5895 28.5772 22.5 26 22.5C25.0095 22.5 24.0949 22.8127 23.3389 23.3388" stroke="#838B97" stroke-width="2" stroke-linecap="round" stroke-linejoin="round"/>
<path fill-rule="evenodd" clip-rule="evenodd" d="M36.5 22.4993V32.9993C36.5 34.2885 35.4558 35.3327 34.1667 35.3327H17.8333C16.5442 35.3327 15.5 34.2885 15.5 32.9993V22.4993C15.5 21.2102 16.5442 20.166 17.8333 20.166H20.1667L21.8723 17.2447C22.0812 16.8865 22.465 16.666 22.8803 16.666H29.0683C29.4778 16.666 29.857 16.8807 30.0682 17.2307L31.8333 20.166H34.1667C35.4558 20.166 36.5 21.2102 36.5 22.4993Z" stroke="#838B97" stroke-width="2" stroke-linecap="round" stroke-linejoin="round"/>
<path d="M20.1665 27.1667L21.3332 26L22.4998 27.1667" stroke="#838B97" stroke-width="2" stroke-linecap="round" stroke-linejoin="round"/>
<path d="M21.4595 26.125C21.3825 26.461 21.3335 26.8063 21.3335 27.1657C21.3335 29.7428 23.423 31.8323 26.0002 31.8323C26.9907 31.8323 27.9053 31.5197 28.6613 30.9935" stroke="#838B97" stroke-width="2" stroke-linecap="round" stroke-linejoin="round"/>
</svg>
